<?xml version="1.0" encoding="UTF-8"?>
<svg id="_Слой_1" data-name="Слой_1" xmlns="http://www.w3.org/2000/svg" width="35.3mm" height="12.7mm" version="1.1" viewBox="0 0 100 36">
  <!-- Generator: Adobe Illustrator 29.8.7, SVG Export Plug-In . SVG Version: 2.1.1 Build 1)  -->
  <defs>
    <style>
      .st0 {
        fill-rule: evenodd;
      }

      .st0, .st1 {
        fill-opacity: .2;
      }
    </style>
  </defs>
  <path class="st0" d="M46.1,15.3c-2.5,0-4.6-1.7-5.2-4.1h-6.2c-1.3,0-2.4,1-2.7,2.3l-.2,1.3c-.2,1.3-.9,2.4-1.8,3.2.9.8,1.5,1.9,1.8,3.2l.2,1.3c.2,1.3,1.3,2.3,2.7,2.3h.8c.6-2.3,2.7-4.1,5.2-4.1s5.4,2.4,5.4,5.4-2.4,5.4-5.4,5.4-4.6-1.7-5.2-4.1h-.8c-2.6,0-4.9-1.9-5.3-4.5l-.2-1.3c-.2-1.3-1.3-2.3-2.7-2.3h-2.1c-.6,2.3-2.7,4.1-5.2,4.1s-4.6-1.7-5.2-4.1h-3c-.6,2.3-2.7,4.1-5.2,4.1S.1,21,.1,18s2.4-5.4,5.4-5.4,4.6,1.7,5.2,4.1h3c.6-2.3,2.7-4.1,5.2-4.1s4.6,1.7,5.2,4.1h2.1c1.3,0,2.4-1,2.7-2.3l.2-1.3c.4-2.6,2.7-4.5,5.3-4.5h6.2c.6-2.3,2.7-4.1,5.2-4.1s5.4,2.4,5.4,5.4-2.4,5.4-5.4,5.4ZM46.1,12.6c1.5,0,2.7-1.2,2.7-2.7s-1.2-2.7-2.7-2.7-2.7,1.2-2.7,2.7,1.2,2.7,2.7,2.7ZM5.5,20.7c1.5,0,2.7-1.2,2.7-2.7s-1.2-2.7-2.7-2.7-2.7,1.2-2.7,2.7,1.2,2.7,2.7,2.7ZM21.8,18c0,1.5-1.2,2.7-2.7,2.7s-2.7-1.2-2.7-2.7,1.2-2.7,2.7-2.7,2.7,1.2,2.7,2.7ZM43.4,26.1c0,1.5-1.2,2.7-2.7,2.7s-2.7-1.2-2.7-2.7,1.2-2.7,2.7-2.7,2.7,1.2,2.7,2.7Z"/>
  <path class="st0" d="M83.9,16.2h0c.9-.6,1.9-1.4,1.9-3,0-2.3-1.9-3.7-4.5-3.7s-4.6,1.5-4.6,3.8.9,2.4,1.9,2.9h0c-1.1.5-2.4,1.7-2.4,3.6s1.9,4,5.1,4,5.1-1.6,5.1-4-1.3-3.1-2.4-3.5ZM81.2,11.4c1.1,0,1.9.7,1.9,1.9s-.8,1.9-1.9,1.9-1.9-.7-1.9-1.9.8-1.9,1.9-1.9ZM81.2,21.6c-1.2,0-2.2-.8-2.2-2.2s.8-2.2,2.2-2.2,2.2.9,2.2,2.2-1,2.1-2.2,2.1Z"/>
  <path class="st1" d="M89.6,23.4h2.7v-5.8c0-1.9,1.2-2.8,2.5-2.8s2.3.9,2.3,2.6v6h2.7v-6.5c0-2.8-1.6-4.5-4.2-4.5s-2.5.6-3.2,1.5h-.2l-.2-1.3h-2.5v10.8Z"/>
  <path class="st1" d="M65.3,23.4h-2.7v-10.8h2.5l.2,1.3h.2c.6-.8,1.5-1.5,3.2-1.5,2.6,0,4.2,1.6,4.2,4.5v6.5h-2.7v-6c0-1.8-1-2.6-2.3-2.6s-2.5.8-2.5,2.8v5.8Z"/>
</svg>