<?xml version="1.0" encoding="UTF-8"?>
<svg id="_Слой_1" data-name="Слой_1" xmlns="http://www.w3.org/2000/svg" width="37mm" height="15.5mm" version="1.1" xmlns:xlink="http://www.w3.org/1999/xlink" viewBox="0 0 105 44">
  <!-- Generator: Adobe Illustrator 29.8.7, SVG Export Plug-In . SVG Version: 2.1.1 Build 1)  -->
  <defs>
    <style>
      .st0 {
        mask: url(#mask-1);
      }

      .st1 {
        fill: #fff;
      }

      .st2 {
        mask: url(#mask);
      }

      .st3 {
        mask: url(#mask-2);
      }

      .st4 {
        fill-opacity: .2;
      }
    </style>
    <mask id="mask" x="-2.5" y="7.7" width="110" height="28.5" maskUnits="userSpaceOnUse">
      <g id="mask0_271_1900">
        <path class="st1" d="M107.5,7.7H-2.5v28.5h110V7.7Z"/>
      </g>
    </mask>
    <mask id="mask-1" x="-3.6" y="8.4" width="24.1" height="26.9" maskUnits="userSpaceOnUse">
      <g id="mask1_271_1900">
        <path class="st1" d="M20.5,8.4H-3.6v26.9h24.1V8.4Z"/>
      </g>
    </mask>
    <mask id="mask-2" x="0" y="8.4" width="17.1" height="24.2" maskUnits="userSpaceOnUse">
      <g id="mask2_271_1900">
        <path class="st1" d="M16.9,8.4H0v24.2h16.9V8.4Z"/>
      </g>
    </mask>
  </defs>
  <g class="st2">
    <g>
      <path class="st4" d="M25.1,14.3v15.8h1.9v-6.6h4.1c1.5,0,2.7-.4,3.6-1.1.9-.8,1.4-1.9,1.4-3.5s-.5-2.7-1.4-3.5c-.9-.8-2.1-1.1-3.6-1.1h-6.1ZM31.3,21.7h-4.3v-5.7h4.3c.9,0,1.6.2,2.1.7s.7,1.2.7,2.1-.2,1.7-.7,2.1c-.5.5-1.2.7-2.1.7ZM37.7,29.5c.6.6,1.5.9,2.6.9s1.6-.2,2.3-.5c.6-.3,1.1-.8,1.5-1.5h0c0,.7.2,1.1.5,1.4.3.3.6.4,1.2.4s.5,0,.8-.1v-1.2h-.3c-.2,0-.3,0-.4-.3,0-.2-.1-.6-.1-1v-5.4c0-1.3-.4-2.2-1.1-2.8-.7-.6-1.6-.9-2.8-.9s-2.7.4-3.4,1c-.8.7-1.2,1.6-1.2,2.8h1.8c0-.6.1-1,.3-1.3.2-.3.4-.6.8-.7.4-.1.9-.2,1.6-.2,1.5,0,2.3.6,2.3,1.7s-.1.6-.3.8c-.2.2-.5.4-.8.5-.4.1-.9.2-1.6.4-1.1.2-1.9.4-2.6.7-.7.3-1.2.7-1.5,1.1-.4.5-.6,1.2-.6,2s.3,1.7,1,2.3ZM39,28.4c-.3-.3-.5-.7-.5-1.3s.2-1.1.7-1.4c.4-.3,1.2-.6,2.3-.8,1.5-.3,2.3-.6,2.6-.9v1.8c0,1-.3,1.8-1,2.3-.7.5-1.5.8-2.6.8s-1.2-.1-1.5-.4ZM48.1,33.9c.4,0,.8.1,1.1.1.8,0,1.4-.2,2-.8.6-.5,1.1-1.5,1.6-2.9l4.4-11.6h-1.8l-3.2,9h0l-3.4-9h-1.9l4.4,11.2c-.2.9-.5,1.5-1,1.9-.4.4-.9.6-1.4.6s-.5,0-.9,0v1.5ZM58.7,14.3v15.8h1.7v-15.8h-1.7ZM64.7,29.7c.8.5,1.8.8,2.9.8s2-.2,2.8-.8c.8-.5,1.4-1.2,1.9-2.1.4-.9.6-1.9.6-3.1s-.2-2.2-.6-3.1c-.4-.9-1-1.6-1.9-2.1-.8-.5-1.8-.8-2.8-.8s-2.1.3-2.9.8c-.8.5-1.4,1.2-1.8,2.1-.4.9-.6,1.9-.6,3.1s.2,2.2.6,3.1c.4.9,1,1.6,1.8,2.1ZM64.9,27.6c-.6-.8-.9-1.9-.9-3.2s.3-2.3.9-3.2c.6-.8,1.5-1.3,2.6-1.3s2,.4,2.6,1.3c.6.8.9,1.9.9,3.2s-.3,2.3-.9,3.2c-.6.8-1.5,1.2-2.6,1.2s-2.1-.4-2.6-1.2ZM75.2,29.5c.6.6,1.5.9,2.6.9s1.6-.2,2.3-.5c.6-.3,1.1-.8,1.5-1.5h0c0,.7.2,1.1.5,1.4.3.3.6.4,1.2.4s.5,0,.8-.1v-1.2h-.3c-.2,0-.3,0-.4-.3,0-.2-.1-.6-.1-1v-5.4c0-1.3-.4-2.2-1.1-2.8-.7-.6-1.6-.9-2.8-.9s-2.7.4-3.4,1c-.8.7-1.2,1.6-1.2,2.8h1.8c0-.6.1-1,.3-1.3.2-.3.4-.6.8-.7.4-.1.9-.2,1.6-.2,1.5,0,2.3.6,2.3,1.7s-.1.6-.3.8c-.2.2-.5.4-.8.5-.4.1-.9.2-1.6.4-1.1.2-1.9.4-2.6.7-.7.3-1.2.7-1.5,1.1-.4.5-.6,1.2-.6,2s.3,1.7,1,2.3ZM76.5,28.4c-.3-.3-.5-.7-.5-1.3s.2-1.1.7-1.4c.4-.3,1.2-.6,2.3-.8,1.5-.3,2.3-.6,2.6-.9v1.8c0,1-.3,1.8-1,2.3-.7.5-1.5.8-2.6.8s-1.2-.1-1.5-.4ZM87.6,29.7c.7.5,1.6.7,2.5.7,1.4,0,2.6-.6,3.4-1.7h0v1.4h1.7v-15.8h-1.7v6h0c-.8-1.2-1.9-1.8-3.4-1.8s-1.8.2-2.5.7c-.7.5-1.3,1.2-1.8,2.1-.4.9-.6,2-.6,3.2s.2,2.3.6,3.2c.4.9,1,1.6,1.8,2.1ZM87.4,26.6c-.3-.7-.4-1.4-.4-2.2s.1-1.5.4-2.1c.2-.7.6-1.2,1.1-1.6.5-.4,1.1-.6,1.8-.6s1.8.4,2.4,1.2c.6.8.9,1.9.9,3.2s-.3,2.4-.9,3.2c-.6.8-1.4,1.2-2.4,1.2s-1.3-.2-1.8-.6c-.5-.4-.9-1-1.1-1.6Z"/>
      <g class="st0">
        <g class="st3">
          <g>
            <path class="st4" d="M7.7,10l9.3,6.2v11.9l-7,4.5v-11.9L.7,14.6l7-4.5Z"/>
            <path class="st4" d="M7,32v-9.3L0,27.3l7,4.7Z"/>
          </g>
        </g>
      </g>
      <path class="st4" d="M99.9,16.6c0-.4,0-.7.2-1,.1-.3.3-.5.5-.7.2-.2.4-.4.7-.5.3-.1.6-.2.9-.2s.6,0,.9.2c.3.1.5.3.7.5.2.2.4.5.5.7.1.3.2.6.2,1s0,.7-.2,1c-.1.3-.3.5-.5.7-.2.2-.4.4-.7.5-.3.1-.6.2-.9.2s-.6,0-.9-.2c-.3-.1-.5-.3-.7-.5-.2-.2-.4-.5-.5-.7-.1-.3-.2-.6-.2-1ZM100.4,16.6c0,.3,0,.6.1.8,0,.2.2.4.4.6.2.2.4.3.6.4.2,0,.5.1.7.1s.5,0,.7-.1c.2,0,.4-.2.6-.4.2-.2.3-.4.4-.6,0-.2.1-.5.1-.8s0-.6-.1-.8c0-.2-.2-.4-.4-.6-.2-.2-.4-.3-.6-.4-.2,0-.5-.1-.7-.1s-.5,0-.7.1c-.2,0-.4.2-.6.4-.2.2-.3.4-.4.6,0,.2-.1.5-.1.8ZM102.3,16.8h-.5v1h-.5v-2.5h.7c.2,0,.3,0,.5,0,.1,0,.3,0,.4.1,0,0,.2.1.2.2,0,.1,0,.2,0,.4s0,.3-.1.4c0,.1-.2.2-.3.3l.6,1.1h-.6l-.5-1ZM102.7,16c0-.2,0-.3-.2-.3-.1,0-.2,0-.4,0h-.3v.7h.4c.2,0,.3,0,.4,0,0,0,.1-.2.1-.3Z"/>
    </g>
  </g>
</svg>