<?xml version="1.0" encoding="UTF-8"?>
<svg id="_Слой_1" data-name="Слой_1" xmlns="http://www.w3.org/2000/svg" width="35.3mm" height="12.7mm" version="1.1" viewBox="0 0 100 36">
  <!-- Generator: Adobe Illustrator 29.8.7, SVG Export Plug-In . SVG Version: 2.1.1 Build 1)  -->
  <defs>
    <style>
      .st0 {
        fill: #1e1e1e;
        fill-opacity: .2;
      }

      .st1 {
        fill: none;
      }
    </style>
  </defs>
  <rect class="st1" x=".3" y="6.5" width="99.3" height="23.7"/>
  <path class="st0" d="M49.7,12.3c-3.9,0-6.6,2.6-6.6,6.5s3.1,6.5,7,6.5,4.4-.9,5.7-2.6l-2.7-1.6c-.7.8-1.8,1.3-3,1.3s-3.1-.9-3.6-2.3h9.8c0-.4.1-.8.1-1.3,0-3.9-2.8-6.5-6.6-6.5ZM46.4,17.5c.4-1.4,1.6-2.3,3.3-2.3s2.9.9,3.3,2.3h-6.6ZM87.3,12.3c-3.9,0-6.6,2.6-6.6,6.5s3.1,6.5,7,6.5,4.4-.9,5.7-2.6l-2.7-1.6c-.7.8-1.8,1.3-3,1.3s-3.1-.9-3.6-2.3h9.8c0-.4.1-.8.1-1.3,0-3.9-2.8-6.5-6.6-6.5ZM84,17.5c.4-1.4,1.6-2.3,3.3-2.3s2.9.9,3.3,2.3h-6.6ZM70.4,18.8c0,2.2,1.4,3.6,3.5,3.6s2.5-.7,3.1-1.8l2.7,1.6c-1.1,1.9-3.2,3.1-5.8,3.1-3.9,0-6.6-2.6-6.6-6.5s2.8-6.5,6.6-6.5,4.6,1.1,5.8,3.1l-2.7,1.6c-.6-1.1-1.6-1.8-3.1-1.8-2.1,0-3.5,1.4-3.5,3.6ZM99.2,8.3v16.6h-3.1V8.3h3.1ZM13.3,6.5l12.9,23H.3L13.3,6.5ZM45.6,8.3l-9.7,17.3-9.7-17.3h3.6l6.1,10.8,6.1-10.8h3.6ZM66.2,12.7v3.5c-.3-.1-.7-.2-1.1-.2-2,0-3.5,1.4-3.5,3.6v5.3h-3.1v-12.2h3.1v3.3c0-1.8,2.1-3.3,4.6-3.3Z"/>
</svg>