<svg width="18" height="11" viewBox="0 0 18 11" fill="none" xmlns="http://www.w3.org/2000/svg">
<path d="M-6.65933e-05 10.1818V5.24521e-06H4.01698C4.78592 5.24521e-06 5.44217 0.137553 5.98573 0.412647C6.5326 0.684428 6.94856 1.07055 7.2336 1.57103C7.52195 2.06819 7.66613 2.65318 7.66613 3.326C7.66613 4.00214 7.52029 4.58381 7.22863 5.07103C6.93696 5.55493 6.51438 5.92614 5.96087 6.18466C5.41068 6.44319 4.74449 6.57245 3.96229 6.57245H1.27266V4.84233H3.61428C4.02526 4.84233 4.36665 4.78599 4.63843 4.6733C4.91021 4.56061 5.11239 4.39158 5.24496 4.1662C5.38085 3.94082 5.4488 3.66075 5.4488 3.326C5.4488 2.98793 5.38085 2.70289 5.24496 2.47089C5.11239 2.23888 4.90855 2.06322 4.63346 1.9439C4.36168 1.82126 4.01864 1.75995 3.60434 1.75995H2.15263V10.1818H-6.65933e-05ZM5.49851 5.5483L8.02905 10.1818H5.65263L3.17678 5.5483H5.49851ZM15.4765 5.24521e-06H17.6292V6.61222C17.6292 7.35465 17.4519 8.00427 17.0972 8.56109C16.7459 9.1179 16.2537 9.55209 15.6207 9.86364C14.9876 10.1719 14.2502 10.326 13.4083 10.326C12.5631 10.326 11.824 10.1719 11.191 9.86364C10.5579 9.55209 10.0657 9.1179 9.71442 8.56109C9.3631 8.00427 9.18743 7.35465 9.18743 6.61222V5.24521e-06H11.3401V6.42827C11.3401 6.81606 11.4246 7.16075 11.5937 7.46236C11.766 7.76397 12.008 8.00095 12.3195 8.1733C12.6311 8.34565 12.994 8.43182 13.4083 8.43182C13.8259 8.43182 14.1889 8.34565 14.4971 8.1733C14.8086 8.00095 15.0489 7.76397 15.218 7.46236C15.3903 7.16075 15.4765 6.81606 15.4765 6.42827V5.24521e-06Z" fill="#0D0D0D"/>
</svg>
